<svg width="150" height="21" viewBox="0 0 150 21" fill="none" xmlns="http://www.w3.org/2000/svg">
<path d="M55.1058 19.9425H51.3708V6.72308H46.4924V3.55042H59.9841V6.72308H55.1058V19.9425Z" fill="#282828"/>
<path d="M75.0002 3.55042H71.189V19.9425H75.0002V3.55042Z" fill="#282828"/>
<path d="M141.774 16.6943H148.329V19.9425H137.962V3.55042H141.774V16.6943Z" fill="#282828"/>
<path d="M91.2365 16.7698H93.5999C96.7254 16.7698 98.8595 14.8058 98.8595 11.7087C98.8595 8.76269 96.7254 6.79862 93.676 6.79862H91.2365V16.7698ZM87.5781 3.55042H93.676C98.1735 3.55042 102.67 5.89214 102.67 11.7087C102.67 17.1475 98.2496 19.9425 93.9044 19.9425H87.5781V3.55042Z" fill="#282828"/>
<path d="M116.543 13.8238L119.059 7.40293L121.498 13.8238H116.543ZM123.785 19.9425H127.977L121.117 3.55042H117.229L110.369 19.9425H114.409L115.629 16.6943H122.641L123.785 19.9425Z" fill="#282828"/>
<path d="M16.3341 1.16321L11.4839 5.97115L16.3355 10.7778L21.1856 5.96978L16.3341 1.16321Z" fill="#282828"/>
<path d="M16.3227 10.7625L11.4719 15.5697L16.3227 20.377L21.1736 15.5697L16.3227 10.7625Z" fill="#282828"/>
<path d="M6.64991 1.15112L1.79907 5.95838L6.64991 10.7657L11.5007 5.95838L6.64991 1.15112Z" fill="#282828"/>
<path d="M26.0205 1.17517L21.1704 5.98311L26.0219 10.7897L30.8721 5.98176L26.0205 1.17517Z" fill="#282828"/>
</svg>
