<svg width="112" height="25" viewBox="0 0 112 25" fill="none" xmlns="http://www.w3.org/2000/svg">
<g clip-path="url(#clip0)">
<path d="M0 12.3126V24.6157H2.44H4.88V19.6157V14.5862L6.75 14.6453L8.62 14.7043L11.49 19.6453L14.34 24.5862L17.15 24.6157C18.67 24.6157 19.93 24.5764 19.93 24.5173C19.93 24.4582 18.63 22.1748 17.06 19.4484C15.47 16.722 14.15 14.4484 14.11 14.3795C14.07 14.3008 14.55 14.0055 15.2 13.6807C16.69 12.9523 18.19 11.5842 18.83 10.3441C19.72 8.58226 19.77 5.48187 18.91 3.83817C18.02 2.13541 15.94 0.698399 13.65 0.216114C13 0.0783195 10.13 -0.0102558 6.29 -0.0102558H0V12.3126ZM12.95 4.61573C14.07 5.1177 14.64 6.01337 14.64 7.31258C14.64 8.51337 14.13 9.43856 13.18 9.95037C12.61 10.2456 11.9 10.3244 8.71 10.3736L4.89 10.4523V7.32242V4.1925H8.5C11.61 4.21218 12.22 4.27124 12.95 4.61573Z" fill="black"/>
<path d="M77.65 12.5197V24.626H79.99H82.33V12.5197V0.413372H79.99H77.65V12.5197Z" fill="black"/>
<path d="M103.5 11.7514C103.56 21.0821 103.56 21.1215 104.03 22.0565C104.56 23.1195 105.82 24.3203 106.84 24.7337C107.28 24.9109 108.3 25.0093 109.76 25.0093H112V23.0112V21.0132H110.7C109.71 21.0132 109.3 20.9148 108.87 20.59L108.34 20.1864V15.4817V10.8065H110.17H112V8.90692V7.00731H110.17H108.34V4.70416V2.40101H105.88H103.44L103.5 11.7514Z" fill="black"/>
<path d="M26.18 6.98783C24.53 7.52917 23.41 8.21814 22.22 9.44846C21 10.7477 20.43 11.7516 20.02 13.4544C18.93 18.0213 20.93 22.3914 25 24.291C26.26 24.8914 26.42 24.9209 28.96 24.9209C31.23 24.9209 31.77 24.8618 32.78 24.4485C34.2 23.8874 36.1 22.2437 36.85 20.8855L37.38 19.9111L35.75 18.976C34.86 18.4544 34.05 18.041 33.96 18.041C33.88 18.041 33.53 18.4445 33.17 18.917C32.36 20.0784 31.26 20.7772 29.92 21.0429C28.73 21.2693 27.86 21.1414 26.83 20.6197C25.61 20.0193 24.39 18.4445 24.39 17.4406C24.39 17.037 24.47 17.037 31.1 17.037H37.81V15.3638C37.81 11.5252 36.01 8.69058 32.63 7.22405C31.18 6.55476 27.82 6.45633 26.18 6.98783ZM31.67 10.8953C32.2 11.2595 32.71 11.8303 33.03 12.4996L33.56 13.5233L29.05 13.5823C26.57 13.6118 24.5 13.5823 24.44 13.5233C24.16 13.2477 25.62 11.4563 26.64 10.8559C27.68 10.226 27.86 10.1965 29.31 10.2555C30.59 10.3146 30.96 10.3933 31.67 10.8953Z" fill="black"/>
<path d="M63.04 6.91907C60.42 7.64741 58 9.54701 57.01 11.6828C56.3 13.2478 55.99 15.6494 56.3 17.4604C57.09 22.1947 60.64 25.0293 65.85 25.0293C68.9 25.0293 70.93 24.301 72.9 22.5687C74.04 21.545 74.81 20.2655 75.31 18.5431C75.74 17.0765 75.64 13.8088 75.13 12.4112C74.29 10.1474 72.08 8.05095 69.58 7.17497C68.03 6.61395 64.61 6.486 63.04 6.91907ZM67.99 11.3876C70.84 12.6277 71.78 16.3679 69.86 18.8482C68.5 20.61 65.63 21.2695 63.7 20.2754C62.65 19.7143 61.5 18.4742 61.18 17.5096C60.77 16.3088 61.01 14.173 61.65 13.238C63.09 11.0923 65.59 10.3738 67.99 11.3876Z" fill="black"/>
<path d="M37.67 7.29322C37.73 7.43102 39.36 11.3976 41.29 16.0924L44.81 24.6357L47.02 24.5767L49.23 24.5176L52.66 16.2105C54.55 11.6436 56.15 7.7066 56.22 7.44086L56.35 6.97826L53.87 7.03732L51.37 7.09637L49.21 12.7361C48.03 15.8365 47 18.3168 46.94 18.2381C46.86 18.1594 45.86 15.6003 44.7 12.5393L42.59 6.99794H40.07C38.04 7.01763 37.58 7.07668 37.67 7.29322Z" fill="black"/>
<path d="M84.76 12.4799C84.76 15.5606 84.86 18.4543 84.99 19.1236C85.43 21.5645 86.76 23.2476 89.02 24.3007C90.32 24.9011 90.47 24.9307 93.11 24.9307C95.69 24.9307 95.93 24.8913 97.07 24.3696C99.33 23.3362 100.77 21.5055 101.21 19.1334C101.34 18.474 101.44 15.5704 101.44 12.4897V7.02712H99.13H96.79L96.73 12.47C96.67 17.6964 96.65 17.972 96.2 18.7692C95.55 19.97 94.45 20.4917 92.81 20.3933C91.35 20.3145 90.51 19.8224 89.94 18.6905C89.6 18.0114 89.56 17.3322 89.5 12.4602L89.44 7.01728H87.1H84.79V12.4799H84.76Z" fill="black"/>
</g>
<defs>
<clipPath id="clip0">
<rect width="112" height="25" fill="white"/>
</clipPath>
</defs>
</svg>
